<svg width="800" height="600" xmlns="http://www.w3.org/2000/svg">

 <g>
  <title>Layer 1</title>
  <g stroke="null">
   <title fill="#029123" stroke="null">C Sharp</title>
   <path fill="#029123" stroke="null" d="m349,194a12,12 0 0 0 -12,12a12,12 0 0 0 12,12a12,12 0 0 0 12,-12a12,12 0 0 0 -12,-12zm-2.574,7.12a5.55,5.55 0 0 1 1.985,0.38l0,1.181a4.5,4.5 0 0 0 -2.25,-0.566a3.439,3.439 0 0 0 -2.625,1.087a4.099,4.099 0 0 0 -1.012,2.906a3.9,3.9 0 0 0 0.945,2.754a3.217,3.217 0 0 0 2.482,1.023a4.657,4.657 0 0 0 2.464,-0.634l-0.004,1.08a5.543,5.543 0 0 1 -2.625,0.555a4.211,4.211 0 0 1 -3.228,-1.297a4.793,4.793 0 0 1 -1.212,-3.409a5.021,5.021 0 0 1 1.365,-3.663a4.631,4.631 0 0 1 3.473,-1.392a5.55,5.55 0 0 1 0.12,-0.004a5.55,5.55 0 0 1 0.122,0l0,-0.001zm5.863,0.155l0.836,0l-0.555,2.652l1.661,0l0.567,-2.652l0.81,0l-0.555,2.652l1.732,-0.004l-0.15,0.697l-1.725,0l-0.412,1.98l1.852,0l-0.176,0.698l-1.816,0l-0.58,2.625l-0.83,0l0.567,-2.625l-1.65,0l-0.555,2.625l-0.81,0l0.555,-2.625l-1.74,0l0.131,-0.698l1.748,0l0.401,-1.976l-1.826,0l0.138,-0.697l1.826,0l0.556,-2.652zm0.142,3.345l-0.431,1.98l1.673,0l0.423,-1.98l-1.665,0z"/>
  </g>
 </g>
</svg>